# xmcd
#
# Track frame offsets:
#	150
#	7975
#	15760
#	23565
#	31396
#	41775
#	43808
#	46286
#	50418
#	58293
#	68744
#	82657
#	95542
#	107901
#	121909
#	133016
#	147852
#	158915
#	171460
#	185377
#	199536
#	212151
#	223204
#	238623
#	261255
#
# Disc length: 3678 seconds
#
# Revision: 1
# Processed by: cddbd v1.5.2PL0 Copyright (c) Steve Scherf et al.
# Submitted via: audiograbber 1.83.01
#
DISCID=5e0e5c19
DTITLE=Dieter Kropp - On The Road
DYEAR=1900
DGENRE=
TTITLE0=Welcome to the Blues Harp, Part I
TTITLE1=Welcome to the Blues Harp, Part II
TTITLE2=Welcome to the Blues Harp, Part III
TTITLE3=Welcome to the Blues Harp, Part IV
TTITLE4=Welcome to the Blues Harp, Part V
TTITLE5=Doppelton - Kanäle 4 und 5
TTITLE6=Einzelton - Kanal 4
TTITLE7=C-Dur-Tonleiter, 1x rauf, 1 Takt Pause, 1x runter
TTITLE8=Welcome to the Blues Harp, Part IV, mit Einzeltönen
TTITLE9=Welcome to the Blues Harp, Part V, mit Einzeltönen
TTITLE10=On Top Of Old Smokey (Cowboy/Pop-Version)
TTITLE11=On Top Of Old Smokey (R&B-Version)
TTITLE12=Hush Little Baby (langsame Original-Version)
TTITLE13=East Virginia (langsame Version)
TTITLE14=East Virginia (Bluegrass-Version)
TTITLE15=Buffalo Gals (langsame Version)
TTITLE16=Buffalo Gals (Up-Tempo-Version)
TTITLE17=Shenandoah (langsame Original-Version)
TTITLE18=Get Along Little Dogies (langsame Version)
TTITLE19=Get Along Little Dogies (Up-Tempo-Version)
TTITLE20=Worried Man (langsame Version)
TTITLE21=Worried Man ( Up-Tempo-Version)
TTITLE22=Down in the Valley (langsame Original-Version)
TTITLE23=Whiskey In The Jar (langsame Version)
TTITLE24=Whiskey In The Jar (Up-Tempo-Version)
EXTD=
EXTT0=
EXTT1=
EXTT2=
EXTT3=
EXTT4=
EXTT5=
EXTT6=
EXTT7=
EXTT8=
EXTT9=
EXTT10=
EXTT11=
EXTT12=
EXTT13=
EXTT14=
EXTT15=
EXTT16=
EXTT17=
EXTT18=
EXTT19=
EXTT20=
EXTT21=
EXTT22=
EXTT23=
EXTT24=
PLAYORDER=
